<?xml version="1.0" encoding="utf-8"?>
<!-- Generator: Adobe Illustrator 19.2.1, SVG Export Plug-In . SVG Version: 6.00 Build 0)  -->
<svg version="1.1" id="layer" xmlns="http://www.w3.org/2000/svg" xmlns:xlink="http://www.w3.org/1999/xlink" x="0px" y="0px"
	 viewBox="0 0 652 652" style="enable-background:new 0 0 652 652;" xml:space="preserve">
<style type="text/css">
	.st0{fill:#00AA13;}
</style>
<g>
	<path class="st0" d="M65.6,321c0-14.6,11.9-26.4,26.5-26.4c14.6,0,26.5,11.8,26.5,26.4c0,14.6-11.9,26.4-26.5,26.4
		C77.5,347.4,65.6,335.6,65.6,321"/>
	<path class="st0" d="M92.1,250.7c-39,0-70.6,31.5-70.6,70.3c0,29.2,17.7,54.1,43.3,64.9c6.7,2.8,14.5-0.3,17.3-7.1
		c0.3-0.8,0.6-1.6,0.8-2.5c1.2-6.2-2.1-12.4-7.9-14.8v0C59.2,354.9,48,339.3,48,321c0-24.3,19.8-44,44.1-44s44.1,19.7,44.1,44
		c0,18.3-11.2,33.9-27.1,40.5v0c-6.7,2.8-9.9,10.5-7.1,17.2c2,4.9,6.9,8.1,12.2,8.1c1.8,0,3.5-0.4,5.1-1
		c25.7-10.8,43.3-35.7,43.3-64.9C162.7,282.2,131.1,250.7,92.1,250.7"/>
	<path d="M367.6,313.2c0-12.7-8.8-22.2-22.4-22.2c-13.7,0-22.4,9.5-22.4,22.2c0,12.7,8.8,22.2,22.4,22.2
		C358.8,335.4,367.6,325.9,367.6,313.2 M300.8,313.2c0-23.4,18.6-41.4,44.4-41.4c26,0,44.4,18.1,44.4,41.4s-18.4,41.4-44.4,41.4
		C319.3,354.6,300.8,336.6,300.8,313.2 M382,371.6h11.9c6.4,0,8.6-2.4,8.6-8v-91.8h22v92c0,19.4-7.9,27.7-28.8,27.7H382L382,371.6
		L382,371.6z M265.6,317.5c0,9.7-9.9,17.4-22.4,17.4c-14.2,0-23-8.3-23-22.2c0-12.8,9.4-21.6,23.9-21.6c11.5,0,21.5,8,21.5,17.1
		C265.6,308.3,265.6,317.5,265.6,317.5z M266.5,271.8v9.2h-0.3c-5.7-6-15.1-9.2-26.3-9.2c-24.1,0-41.8,17.9-41.8,40.9
		c0,24,18.2,41.5,42.6,41.5c10.9,0,20-3.4,25.6-9.5h0.3v8c0,10.7-9.3,18.6-21.5,18.6c-12.4,0-19.5-3.5-25.8-9.4l-14.3,13.7
		c9.6,10.1,24,15.9,40.5,15.9c25.1,0,42.3-16.8,42.3-39.1v-80.6C287.7,271.8,266.5,271.8,266.5,271.8z M480.7,289.6
		c11.7,0,19.9,6.1,20.9,15.2h-42.2C460.6,295.6,468.8,289.6,480.7,289.6 M482.9,336.9c-13.2,0-23.5-8.5-23.8-16.7H523V314
		c0-23.5-16.3-42.2-42.8-42.2c-24.9,0-42.8,17.5-42.8,41.6c0,24.8,18.8,41.3,46.4,41.3c16.9,0,29.1-8.1,35.4-15.8l-14.9-10.4
		C497.8,334.6,491.8,336.9,482.9,336.9 M535.9,250.5h21.2l0.1,54.3h0.3l35.5-33.2h28.4l-36.8,34.7l36.7,48.3H596l-25.2-34.9h-0.3
		l-13.4,12.6v22.3h-21.2L535.9,250.5z"/>
</g>
</svg>
