<?xml version="1.0" encoding="UTF-8"?>
<!DOCTYPE svg PUBLIC "-//W3C//DTD SVG 1.1//EN" "http://www.w3.org/Graphics/SVG/1.1/DTD/svg11.dtd">
<!-- Creator: CorelDRAW X7 -->
<svg xmlns="http://www.w3.org/2000/svg" xml:space="preserve" width="3000px" height="3000px" version="1.1" style="shape-rendering:geometricPrecision; text-rendering:geometricPrecision; image-rendering:optimizeQuality; fill-rule:evenodd; clip-rule:evenodd"
viewBox="0 0 3000 3000"
 xmlns:xlink="http://www.w3.org/1999/xlink">
 <defs>
  <style type="text/css">
   <![CDATA[
    .fil9 {fill:none}
    .fil5 {fill:#414141}
    .fil8 {fill:#42B549}
    .fil1 {fill:#4F9D4E}
    .fil2 {fill:#60BB55}
    .fil3 {fill:#84C567}
    .fil7 {fill:#FCF5AE}
    .fil6 {fill:#FFC868}
    .fil4 {fill:white}
    .fil0 {fill:#414141;fill-rule:nonzero}
   ]]>
  </style>
 </defs>
 <g id="Layer_x0020_1">
  <metadata id="CorelCorpID_0Corel-Layer"/>
  <g id="_2337287899248">
   <path class="fil0" d="M1869 608l382 0 0 889c0,133 -54,254 -142,342 -88,88 -209,143 -343,143l-1017 0 0 -1374 382 0c11,-84 49,-159 106,-216 67,-67 160,-109 263,-109 103,0 196,42 263,109 57,57 95,132 106,216zm-644 3c44,3 86,11 125,21 54,13 104,33 150,56 46,-23 96,-43 150,-56 39,-10 81,-18 125,-21 -10,-59 -38,-112 -78,-153 -51,-50 -120,-81 -197,-81 -77,0 -146,31 -197,81 -40,41 -68,94 -78,153z"/>
   <path class="fil1" d="M1846 661l347 0c3,0 5,2 5,5l0 831c0,237 -194,432 -432,432l-266 0 0 -1180c94,-55 211,-88 346,-88z"/>
   <path class="fil2" d="M1154 661l-347 0c-3,0 -5,2 -5,5 0,421 0,842 0,1263 232,0 465,0 698,0l0 -1180c-94,-55 -211,-88 -346,-88z"/>
   <path class="fil2" d="M2042 1829c-75,62 -171,100 -276,100l-266 0 0 -457c240,1 447,147 542,357z"/>
   <path class="fil3" d="M917 1929l583 0 0 -457c-1,0 -2,0 -3,0 -278,0 -512,194 -580,457z"/>
   <path class="fil0" d="M1174 829c98,0 186,40 250,103 32,33 58,71 76,114 18,-43 44,-81 76,-114 64,-63 152,-103 250,-103 98,0 186,40 250,103 64,64 103,153 103,250 0,98 -39,186 -103,250 -64,64 -152,104 -250,104 -51,0 -99,-11 -143,-30l-17 17 -140 139 -29 30 -29 -30 -139 -139 -16 -16c-43,19 -90,29 -139,29 -98,0 -186,-40 -250,-104 -64,-64 -103,-152 -103,-250 0,-97 39,-186 103,-250 64,-63 152,-103 250,-103zm367 563c-16,-22 -30,-47 -41,-73 -11,26 -24,50 -41,72 13,-2 25,-4 38,-4 15,0 30,2 44,5z"/>
   <path class="fil4" d="M1826 882c166,0 301,134 301,300 0,166 -135,301 -301,301 -166,0 -301,-135 -301,-301 0,-166 135,-300 301,-300z"/>
   <path class="fil4" d="M1174 882c166,0 301,134 301,300 0,166 -135,301 -301,301 -166,0 -301,-135 -301,-301 0,-166 135,-300 301,-300z"/>
   <path class="fil5" d="M1207 992c105,0 190,85 190,190 0,105 -85,190 -190,190 -105,0 -190,-85 -190,-190 0,-34 9,-66 25,-94 13,37 48,63 89,63 51,0 93,-42 93,-93 0,-25 -11,-48 -27,-65 3,0 7,-1 10,-1z"/>
   <path class="fil5" d="M1786 992c105,0 190,85 190,190 0,105 -85,190 -190,190 -105,0 -190,-85 -190,-190 0,-34 10,-66 26,-94 12,37 47,63 88,63 51,0 93,-42 93,-93 0,-25 -10,-48 -27,-65 3,0 7,-1 10,-1z"/>
   <path class="fil6" d="M1497 1429c55,0 105,25 140,65l-140 139 0 -204z"/>
   <path class="fil7" d="M1497 1633l-139 -139c35,-40 84,-65 139,-65l0 204z"/>
   <path class="fil8" d="M534 2344c-18,-19 -42,-29 -70,-29 -61,0 -98,45 -98,103 0,58 37,104 98,104 60,0 98,-45 98,-104 -1,-31 -10,-55 -28,-74zm1902 -89l66 0 0 320 -5 0c-34,0 -62,-27 -62,-61l0 -259 1 0zm-559 326c-41,9 -83,2 -124,-20 -40,-22 -66,-55 -79,-98 -27,-88 28,-186 117,-209 44,-12 85,-6 125,16 66,37 91,94 86,168l-266 -1c4,30 23,54 49,68 27,15 51,18 73,11 25,-8 46,-29 62,-48l54 40c-22,41 -52,64 -97,73zm51 -204c-8,-26 -19,-39 -43,-52 -56,-32 -113,-5 -139,52l182 0zm906 19c0,-26 -10,-47 -30,-63 -18,-14 -40,-21 -68,-21 -59,0 -98,47 -98,105 0,56 41,102 97,102 40,0 61,-23 84,-52l0 83c-12,9 -25,17 -38,23 -14,6 -31,9 -51,9 -95,0 -158,-78 -158,-170 0,-47 15,-86 44,-116 31,-32 72,-48 121,-48 95,0 163,54 163,153l0 174 -5 0c-34,0 -62,-27 -62,-61l0 -118 1 0zm-336 -179c-7,8 -17,11 -29,11 -23,0 -39,-17 -39,-39 0,-23 16,-39 39,-39 22,0 39,16 39,39 0,11 -3,21 -10,28zm-187 317c-30,32 -69,48 -116,48 -50,0 -91,-17 -122,-51 -29,-33 -44,-74 -44,-123 0,-87 67,-159 155,-159 34,0 64,7 92,24l0 72c-23,-16 -53,-32 -83,-32 -62,0 -99,43 -99,103 0,60 39,104 100,104 28,0 50,-10 69,-31 17,-21 26,-51 26,-92l0 -224c0,-33 28,-61 62,-61l5 0 0 295c0,52 -15,94 -45,127zm-717 3c-31,30 -67,46 -110,46 -34,0 -62,-7 -92,-23l0 -71c24,16 53,32 83,32 62,0 99,-43 99,-103 0,-60 -38,-104 -100,-104 -28,0 -49,10 -67,30 -19,22 -28,52 -28,93l0 280 -5 0c-34,0 -62,-28 -62,-62l0 -229c0,-97 60,-176 161,-176 51,0 92,17 123,52 29,32 44,74 44,123 0,43 -15,81 -46,112zm-409 -193c-18,-19 -41,-29 -69,-29 -61,0 -98,45 -98,103 0,58 37,104 98,104 59,0 97,-45 97,-104 -1,-31 -10,-55 -28,-74zm47 194c-33,31 -72,47 -117,47 -45,0 -85,-16 -117,-47 -33,-32 -49,-72 -49,-120 0,-93 72,-166 167,-166 44,0 84,16 117,48 33,32 50,72 50,119 -1,47 -18,87 -51,119zm-341 -202c-10,16 -17,28 -23,35 -6,7 -12,13 -17,17 46,15 63,47 63,94l0 96 -5 0c-34,0 -62,-28 -62,-62l0 -28c0,-31 -14,-52 -46,-52l-60 0 0 142 -5 0c-33,0 -61,-28 -61,-62l0 -340c0,-34 28,-62 61,-62l5 0 0 260 20 0c22,0 36,-7 44,-21l56 -94 76 0 -46 77zm-309 202c-33,31 -72,47 -118,47 -45,0 -85,-16 -117,-47 -33,-32 -48,-72 -48,-120 0,-93 71,-166 166,-166 45,0 85,16 118,48 33,32 50,72 50,119 -2,47 -18,87 -51,119zm-385 41c-65,0 -97,-44 -97,-106l0 -233c0,-34 28,-62 62,-62l5 0 0 80 112 0 0 64 -112 0 0 158c0,27 12,35 38,35l74 0 0 64 -82 0z"/>
  </g>
  <polygon class="fil9" points="0,0 3000,0 3000,3000 0,3000 "/>
 </g>
</svg>
